<svg xmlns="http://www.w3.org/2000/svg" width="1600" height="1000" viewBox="0 0 1600 1000" role="img" aria-labelledby="title desc">
  <title id="title">Sfondo idraulico soft</title>
  <desc id="desc">Sfondo leggero con tubazioni stilizzate per hero.</desc>
  <defs>
    <linearGradient id="bg" x1="0" x2="1" y1="0" y2="1">
      <stop offset="0" stop-color="#163a59"/>
      <stop offset="1" stop-color="#325f83"/>
    </linearGradient>
    <filter id="blur" x="-10%" y="-10%" width="120%" height="120%">
      <feGaussianBlur stdDeviation="2"/>
    </filter>
  </defs>
  <rect width="1600" height="1000" fill="url(#bg)"/>
  <g filter="url(#blur)" opacity="0.28" stroke="#b6d3ea" stroke-width="14" fill="none" stroke-linecap="round">
    <path d="M0 220H420c64 0 94 46 94 86v26c0 36 24 62 64 62h1022"/>
    <path d="M0 520h560c42 0 66 22 66 58v38c0 36 20 56 58 56h916"/>
    <path d="M260 0v232c0 32 20 52 52 52h170"/>
    <path d="M1180 1000V790c0-42-24-66-64-66H912"/>
  </g>
  <g opacity="0.16" fill="#d8ebfa">
    <circle cx="220" cy="190" r="88"/>
    <circle cx="1310" cy="230" r="120"/>
    <circle cx="980" cy="760" r="140"/>
  </g>
</svg>
